<svg xmlns="http://www.w3.org/2000/svg" viewBox="0 0 96.07 158.31"><defs><style>.cls-1{fill:none;stroke:#999;stroke-linecap:round;stroke-linejoin:round;stroke-width:5px;}</style></defs><g id="Camada_2" data-name="Camada 2"><g id="Camada_1-2" data-name="Camada 1"><path class="cls-1" d="M61,38.22c-11.2,1.09-22.54,1.41-33.57,3.44C12.59,44.39,2.52,57.77,2.51,72.9q0,20.59,0,41.19c0,17.25,1.17,18.42,18.43,18.42"/><path class="cls-1" d="M87,133.59c.44,7.2.89,14.4,1.38,22.22H7.68l-.84-13.55"/><path class="cls-1" d="M91.37,89.16H14.42"/><path class="cls-1" d="M33.93,28.47h27c-.18,7.65.8,12,9.8,13.57C84,44.35,93.49,59.9,93.53,74c0,14.81.07,29.62,0,44.43C93.45,129,90,132.48,79.45,132.5c-13.73,0-27.46,0-41.18,0"/><path class="cls-1" d="M83.78,7.88C59.94,1,36.1.44,12.26,7.88"/><path class="cls-1" d="M28.51,54.48c-8.07,4.5-13.46,10.7-13,20.59"/><path class="cls-1" d="M25.26,6.8l6.5,14.08"/><path class="cls-1" d="M70.78,6.8l-6.5,11.92"/></g></g></svg>