<svg xmlns="http://www.w3.org/2000/svg" viewBox="0 0 98.24 151.68"><defs><style>.cls-1{fill:none;stroke:#000;stroke-linecap:round;stroke-linejoin:round;stroke-width:5px;}</style></defs><g id="Camada_2" data-name="Camada 2"><g id="Camada_1-2" data-name="Camada 1"><path class="cls-1" d="M8.69,126.54c-8.18,3.19-5.95,10.73-4.85,15.94,1,4.82,6.29,6.83,12.29,6.7,21.59-.47,43.19-.18,64.78-.19,5,0,10.56,1.13,12.71-5.36,2-6.19,2.78-12.31-3.15-17.09H9.75"/><path class="cls-1" d="M9.75,84.84H91.58c5.81,6.64,2.83,14.71,2,23H7A14.5,14.5,0,0,1,4.85,89.39c4.46-6.76,5.06-13.31,4.9-20.59"/><path class="cls-1" d="M88.35,67.73c-3.9-.72-7.79-2.06-11.68-2-22,.14-43.9.82-65.85.68-2.49,0-6.47-3.61-7.11-6.21-1.16-4.7-.33-9.89-.33-15.73L17.19,41"/><path class="cls-1" d="M59.67,18.54v9.17c8,4,16,8.45,24.47,12.13,10.29,4.49,14.79,12.46,9.14,22.32-4.17,7.3-3.6,14.25-3.87,21.61"/><path class="cls-1" d="M59.67,17.47c7.67-3.19,5.18-9.31,4.25-15H32.59c.89,5.28,1.73,10.31,2.26,13.47l23.76,1.5"/><path class="cls-1" d="M38.43,18.54V27L18.25,38.86"/><path class="cls-1" d="M36.31,44.2l-17-2.14"/><path class="cls-1" d="M8.69,109.43v16"/><path class="cls-1" d="M89.41,109.43v16"/></g></g></svg>